<?xml version="1.0" encoding="utf-8"?>
<!-- Generator: Adobe Illustrator 23.1.1, SVG Export Plug-In . SVG Version: 6.00 Build 0)  -->
<svg version="1.1" id="Layer_1" xmlns="http://www.w3.org/2000/svg" xmlns:xlink="http://www.w3.org/1999/xlink" x="0px" y="0px"
	 viewBox="0 0 50 50" style="enable-background:new 0 0 50 50;" xml:space="preserve">
<style type="text/css">
	.st0{fill:#209765;}
</style>
<path class="st0" d="M47.6,37.1h-1c-0.4-1.1-0.7-2.3-0.7-3.4c0,0,0-0.1,0-0.1c0,0,0-0.1,0-0.1c0-1.2,0.3-2.3,0.7-3.5h1
	c0.4,0,0.8-0.3,0.8-0.8s-0.3-0.8-0.8-0.8h-5.3h-1c-0.4-1.1-0.7-2.3-0.7-3.5c0-1.2,0.3-2.4,0.7-3.6h1h3.9c0.4,0,0.8-0.3,0.8-0.8
	S46.6,20,46.2,20h-1.5c-0.4-1.1-0.7-2.3-0.7-3.5c0-1.2,0.3-2.4,0.7-3.6h1.5c0.4,0,0.8-0.3,0.8-0.8s-0.3-0.8-0.8-0.8h-2c0,0,0,0,0,0
	H8.6c-1.7,0-3,1.4-3,3v4C5.5,19,5.7,19.5,6,20H4.7c-1.7,0-3,1.4-3,3v4c0,1.7,1.4,3,3,3h2.7c-0.3,0.5-0.4,1-0.4,1.5v4
	c0,1.7,1.4,3,3,3h37.6c0.4,0,0.8-0.3,0.8-0.8S48,37.1,47.6,37.1z M34.4,28.5l0-2.8h4.7c0.1,0.9,0.3,1.9,0.6,2.8h-4.3H34.4z M33,29.6
	L31.7,29c-0.2-0.1-0.4-0.1-0.6,0l-1.2,0.5v-0.3c0,0,0,0,0,0s0,0,0,0v-3.5h3L33,29.6z M42.3,20H19.7h-2.3v-2.8h25.1
	c0.1,0.9,0.3,1.9,0.6,2.8H42.3z M12.9,17.2h3V21l-1.2-0.5c-0.1,0-0.2-0.1-0.3-0.1s-0.2,0-0.3,0.1L12.9,21V17.2z M7,14.4
	c0-0.8,0.7-1.5,1.5-1.5h34.6c-0.3,0.9-0.5,1.8-0.5,2.8H16.7h-4.5h-1.6c-0.4,0-0.8,0.3-0.8,0.7s0.3,0.8,0.8,0.8h0.8V20H8.6
	C7.7,20,7,19.3,7,18.4V14.4z M3.1,27v-4c0-0.8,0.7-1.5,1.5-1.5h5.3c0,0,0,0,0,0h1.4v0.7c0,0.3,0.1,0.5,0.3,0.6
	c0.1,0.1,0.3,0.1,0.4,0.1c0.1,0,0.2,0,0.3-0.1l2-0.9l2,0.9c0.2,0.1,0.5,0.1,0.7-0.1c0.2-0.1,0.3-0.4,0.3-0.6v-0.7h2.3h19.9
	c-0.3,0.9-0.5,1.8-0.6,2.8h-5.4h-4.5h-22c-0.4,0-0.8,0.3-0.8,0.8s0.3,0.8,0.8,0.8h21.3v2.8H4.7C3.8,28.5,3.1,27.8,3.1,27z M8.4,35.6
	v-4c0-0.8,0.7-1.5,1.5-1.5h17.8c0,0,0,0,0,0h0.7v0.7c0,0.3,0.1,0.5,0.3,0.6c0.1,0.1,0.3,0.1,0.4,0.1c0.1,0,0.2,0,0.3-0.1l2-0.9
	l2,0.9c0.2,0.1,0.5,0.1,0.7-0.1c0.2-0.1,0.3-0.4,0.3-0.6l0-0.7h0.9h7H45c-0.3,0.9-0.5,1.8-0.6,2.8h-32c-0.4,0-0.8,0.3-0.8,0.8
	s0.3,0.8,0.8,0.8h32c0.1,0.9,0.3,1.9,0.6,2.8H10C9.1,37.1,8.4,36.4,8.4,35.6z"/>
</svg>
