<?xml version="1.0" encoding="UTF-8"?>
<!-- Generator: Adobe Illustrator 17.1.0, SVG Export Plug-In . SVG Version: 6.00 Build 0)  -->
<!DOCTYPE svg PUBLIC "-//W3C//DTD SVG 1.1//EN" "http://www.w3.org/Graphics/SVG/1.1/DTD/svg11.dtd">
<svg version="1.1" id="Layer_1" xmlns="http://www.w3.org/2000/svg" xmlns:xlink="http://www.w3.org/1999/xlink" x="0px" y="0px" width="28px" height="28px" viewBox="0 0 28 28" enable-background="new 0 0 28 28" xml:space="preserve">
<g>
	<g>
		<path fill="#FFFFFF" d="M6.7,27.2H1.3V9.6h5.5v17.6H6.7z M4,7.2C2.2,7.2,0.8,5.8,0.8,4S2.2,0.8,4,0.8c1.7,0,3.2,1.4,3.2,3.2    S5.7,7.2,4,7.2z M27.2,27.2h-5.5v-8.5c0-2,0-4.7-2.8-4.7s-3.3,2.2-3.3,4.5v8.7h-5.5V9.6h5.2V12h0.1c0.7-1.4,2.5-2.8,5.2-2.8    c5.5,0,6.6,3.6,6.6,8.4C27.2,17.6,27.2,27.2,27.2,27.2z"/>
	</g>
</g>
</svg>