<?xml version="1.0" encoding="UTF-8"?>
<!-- Generator: Adobe Illustrator 18.0.0, SVG Export Plug-In . SVG Version: 6.00 Build 0)  -->
<!DOCTYPE svg PUBLIC "-//W3C//DTD SVG 1.1//EN" "http://www.w3.org/Graphics/SVG/1.1/DTD/svg11.dtd">
<svg version="1.1" id="Layer_1" xmlns="http://www.w3.org/2000/svg" xmlns:xlink="http://www.w3.org/1999/xlink" x="0px" y="0px" width="28px" height="28px" viewBox="0 0 28 28" enable-background="new 0 0 28 28" xml:space="preserve">
<g>
	<path id="The_Sharpness" opacity="0.12" fill-rule="evenodd" clip-rule="evenodd" d="M11.2,9.9l6.5,4.3l0.9-0.5L11.2,9.9z"/>
	<g id="Lozenge">
		<g>
			<path fill="#FFFFFF" d="M27.4,8.5c0,0-0.3-1.9-1.1-2.7c-1-1.1-2.2-1.1-2.7-1.2C19.8,4.4,14,4.4,14,4.4h0c0,0-5.7,0-9.6,0.3     C3.9,4.7,2.7,4.7,1.7,5.8C0.9,6.6,0.6,8.5,0.6,8.5S0.3,10.7,0.3,13V15c0,2.2,0.3,4.4,0.3,4.4s0.3,1.9,1.1,2.7     c1,1.1,2.4,1.1,3,1.2c2.2,0.2,9.3,0.3,9.3,0.3s5.8,0,9.6-0.3c0.5-0.1,1.7-0.1,2.7-1.2c0.8-0.8,1.1-2.7,1.1-2.7s0.3-2.2,0.3-4.4     V13C27.7,10.7,27.4,8.5,27.4,8.5z M11.2,17.6l0-7.7l7.4,3.9L11.2,17.6z"/>
		</g>
	</g>
</g>
</svg>